<?xml version="1.0" encoding="UTF-8" standalone="no"?>
<!DOCTYPE svg PUBLIC "-//W3C//DTD SVG 1.1//EN" "http://www.w3.org/Graphics/SVG/1.1/DTD/svg11.dtd">
<svg width="100%" height="100%" viewBox="0 0 321 52" version="1.1" xmlns="http://www.w3.org/2000/svg" xmlns:xlink="http://www.w3.org/1999/xlink" xml:space="preserve" xmlns:serif="http://www.serif.com/" style="fill-rule:evenodd;clip-rule:evenodd;stroke-linejoin:round;stroke-miterlimit:2;">
    <path d="M4,28.265C1.36,31.975 2.66,35.645 0,39.375C0.84,40.295 1.69,41.885 3.39,40.905C1.93,41.805 2.52,43.535 2.62,44.905C5.41,46.075 6.77,48.975 9.73,49.025C9.9,48.845 10.07,48.725 10.23,48.565C10.8,48.848 11.424,49.008 12.06,49.035C12.23,48.865 12.4,48.735 12.57,48.575C13.134,48.866 13.756,49.03 14.39,49.055C14.56,48.885 14.73,48.755 14.9,48.595C15.466,48.881 16.086,49.045 16.72,49.075C16.89,48.905 17.06,48.775 17.23,48.615C17.799,48.903 18.423,49.066 19.06,49.095C19.22,48.915 19.39,48.795 19.56,48.635C20.13,48.919 20.754,49.08 21.39,49.105C21.56,48.935 21.72,48.805 21.89,48.645C22.457,48.937 23.082,49.101 23.72,49.125C23.89,48.955 24.06,48.825 24.22,48.665C24.79,48.951 25.413,49.115 26.05,49.145C26.22,48.975 26.39,48.845 26.55,48.685C27.12,48.971 27.743,49.135 28.38,49.165C28.55,48.985 28.72,48.865 28.89,48.695C29.454,48.986 30.076,49.15 30.71,49.175C30.88,49.005 31.05,48.875 31.22,48.715C31.784,49.006 32.406,49.17 33.04,49.195C33.21,49.025 33.38,48.895 33.55,48.735C34.119,49.023 34.743,49.186 35.38,49.215C35.55,49.035 35.71,48.915 35.88,48.755C36.449,49.043 37.073,49.206 37.71,49.235C37.88,49.055 38.04,48.925 38.21,48.765C38.777,49.057 39.402,49.221 40.04,49.245C40.21,49.075 40.38,48.945 40.54,48.785C41.108,49.076 41.732,49.24 42.37,49.265C42.54,49.095 42.71,48.965 42.87,48.805C43.44,49.091 44.063,49.255 44.7,49.285C44.87,49.105 45.04,48.985 45.21,48.825C45.776,49.111 46.396,49.275 47.03,49.305C47.2,49.125 47.37,48.995 47.54,48.835C48.104,49.126 48.726,49.29 49.36,49.315C49.53,49.145 49.7,49.015 49.87,48.855C50.439,49.143 51.063,49.306 51.7,49.335C51.87,49.165 52.03,49.035 52.2,48.875C52.769,49.163 53.393,49.326 54.03,49.355C54.2,49.175 54.36,49.055 54.53,48.895C55.099,49.183 55.723,49.346 56.36,49.375C56.53,49.195 56.7,49.065 56.86,48.905C57.428,49.196 58.052,49.36 58.69,49.385C58.86,49.215 59.03,49.085 59.19,48.925C59.758,49.216 60.382,49.38 61.02,49.405C61.19,49.235 61.36,49.105 61.53,48.945C62.096,49.231 62.716,49.395 63.35,49.425C63.52,49.245 63.69,49.125 63.86,48.965C64.426,49.251 65.046,49.415 65.68,49.445C65.85,49.265 66.02,49.135 66.19,48.975C66.757,49.267 67.382,49.431 68.02,49.455C68.19,49.285 68.35,49.155 68.52,48.995C69.089,49.283 69.713,49.446 70.35,49.475C70.52,49.305 70.68,49.175 70.85,49.015C71.42,49.301 72.043,49.465 72.68,49.495C72.85,49.315 73.02,49.195 73.18,49.035C73.75,49.318 74.374,49.478 75.01,49.505C75.18,49.335 75.35,49.205 75.52,49.045C76.084,49.337 76.705,49.501 77.34,49.525C77.51,49.355 77.68,49.225 77.85,49.065C78.416,49.351 79.036,49.515 79.67,49.545C79.84,49.375 80.01,49.245 80.18,49.085C80.746,49.371 81.366,49.535 82,49.565C82.17,49.385 82.34,49.265 82.51,49.105C83.08,49.389 83.704,49.55 84.34,49.575C84.51,49.405 84.67,49.275 84.84,49.115C85.407,49.407 86.032,49.571 86.67,49.595C86.84,49.425 87,49.295 87.17,49.135C87.739,49.423 88.363,49.586 89,49.615C89.17,49.445 89.34,49.315 89.5,49.155C90.07,49.441 90.693,49.605 91.33,49.635C91.5,49.455 91.67,49.335 91.84,49.175C92.407,49.458 93.027,49.618 93.66,49.645C93.83,49.475 94,49.345 94.17,49.185C94.734,49.476 95.356,49.64 95.99,49.665C96.16,49.495 96.33,49.365 96.5,49.205C97.069,49.493 97.693,49.656 98.33,49.685C98.49,49.505 98.66,49.385 98.83,49.225C99.399,49.513 100.023,49.676 100.66,49.705C100.83,49.525 100.99,49.395 101.16,49.235C101.727,49.527 102.352,49.691 102.99,49.715C103.16,49.545 103.32,49.415 103.49,49.255C104.058,49.546 104.682,49.71 105.32,49.735C105.49,49.565 105.66,49.435 105.82,49.275C106.39,49.561 107.013,49.725 107.65,49.755C107.82,49.575 107.99,49.455 108.16,49.295C108.726,49.583 109.346,49.746 109.98,49.775C110.15,49.595 110.32,49.465 110.49,49.305C111.054,49.596 111.676,49.76 112.31,49.785C112.48,49.615 112.65,49.485 112.82,49.325C113.387,49.617 114.012,49.781 114.65,49.805C114.81,49.635 114.98,49.505 115.15,49.345C115.719,49.633 116.343,49.796 116.98,49.825C117.15,49.645 117.31,49.525 117.48,49.365C118.049,49.653 118.673,49.816 119.31,49.845C119.48,49.665 119.64,49.535 119.81,49.375C120.378,49.666 121.002,49.83 121.64,49.855C121.81,49.685 121.98,49.555 122.14,49.395C122.71,49.681 123.333,49.845 123.97,49.875C124.14,49.705 124.31,49.575 124.48,49.415C125.046,49.701 125.666,49.865 126.3,49.895C126.47,49.715 126.64,49.595 126.81,49.435C127.378,49.717 127.997,49.88 128.63,49.915C128.8,49.735 128.97,49.605 129.14,49.445C129.712,49.759 130.348,49.94 131,49.975C131.16,49.805 131.33,49.675 131.5,49.515C132.069,49.803 132.693,49.966 133.33,49.995C133.5,49.825 133.66,49.695 133.83,49.535C134.399,49.823 135.023,49.986 135.66,50.015C135.83,49.835 135.99,49.715 136.16,49.555C136.739,49.817 137.365,49.96 138,49.975C138.17,49.795 138.34,49.665 138.5,49.505C139.068,49.796 139.692,49.96 140.33,49.985C140.5,49.815 140.67,49.685 140.84,49.525C141.406,49.811 142.026,49.975 142.66,50.005C142.83,49.835 143,49.705 143.17,49.545C143.736,49.831 144.356,49.995 144.99,50.025C145.16,49.845 145.33,49.725 145.5,49.555C146.067,49.847 146.692,50.011 147.33,50.035C147.49,49.865 147.66,49.735 147.83,49.575C148.397,49.867 149.022,50.031 149.66,50.055C149.83,49.885 149.99,49.755 150.16,49.595C150.729,49.883 151.353,50.046 151.99,50.075C152.16,49.905 152.33,49.775 152.49,49.615C153.06,49.901 153.683,50.065 154.32,50.095C154.49,49.915 154.66,49.795 154.82,49.625C155.388,49.916 156.012,50.08 156.65,50.105C156.82,49.935 156.99,49.805 157.16,49.645C157.724,49.936 158.346,50.1 158.98,50.125C159.15,49.955 159.32,49.825 159.49,49.665C160.056,49.951 160.676,50.115 161.31,50.145C161.48,49.965 161.65,49.845 161.82,49.685C162.389,49.973 163.013,50.136 163.65,50.165C163.81,49.985 163.98,49.855 164.15,49.695C164.717,49.987 165.342,50.151 165.98,50.175C166.15,50.005 166.31,49.875 166.48,49.715C167.047,50.007 167.672,50.171 168.31,50.195C168.48,50.025 168.64,49.895 168.81,49.735C169.38,50.021 170.003,50.185 170.64,50.215C170.81,50.035 170.98,49.915 171.14,49.755C171.71,50.041 172.333,50.205 172.97,50.235C173.14,50.055 173.31,49.925 173.48,49.765C174.044,50.056 174.666,50.22 175.3,50.245C175.47,50.075 175.64,49.945 175.81,49.785C176.374,50.076 176.996,50.24 177.63,50.265C177.8,50.095 177.97,49.965 178.14,49.805C178.709,50.093 179.333,50.256 179.97,50.285C180.14,50.105 180.3,49.985 180.47,49.825C181.039,50.113 181.663,50.276 182.3,50.305C182.47,50.125 182.63,49.995 182.8,49.835C183.367,50.127 183.992,50.291 184.63,50.315C184.8,50.145 184.97,50.015 185.13,49.855C185.7,50.141 186.323,50.305 186.96,50.335C187.13,50.165 187.3,50.035 187.46,49.875C188.03,50.161 188.653,50.325 189.29,50.355C189.46,50.175 189.63,50.055 189.8,49.895C190.368,50.177 190.987,50.34 191.62,50.375C191.79,50.195 191.96,50.065 192.13,49.905C192.694,50.196 193.316,50.36 193.95,50.385C194.12,50.215 194.29,50.085 194.46,49.925C195.029,50.213 195.653,50.376 196.29,50.405C196.46,50.235 196.62,50.105 196.79,49.945C197.359,50.233 197.983,50.396 198.62,50.425C198.79,50.245 198.95,50.125 199.12,49.965C199.69,50.248 200.314,50.408 200.95,50.435C201.12,50.265 201.29,50.135 201.45,49.975C202.018,50.266 202.642,50.43 203.28,50.455C203.45,50.285 203.62,50.155 203.78,49.995C204.35,50.281 204.973,50.445 205.61,50.475C205.78,50.305 205.95,50.175 206.12,50.015C206.686,50.301 207.306,50.465 207.94,50.495C208.11,50.315 208.28,50.195 208.45,50.035C209.02,50.319 209.644,50.48 210.28,50.505C210.44,50.335 210.61,50.205 210.78,50.045C211.347,50.337 211.972,50.501 212.61,50.525C212.78,50.355 212.94,50.225 213.11,50.065C213.679,50.353 214.303,50.516 214.94,50.545C215.11,50.365 215.27,50.245 215.44,50.085C216.009,50.373 216.633,50.536 217.27,50.565C217.44,50.385 217.61,50.255 217.77,50.095C218.338,50.386 218.962,50.55 219.6,50.575C219.77,50.405 219.94,50.275 220.11,50.115C220.674,50.406 221.296,50.57 221.93,50.595C222.1,50.425 222.27,50.295 222.44,50.135C223.006,50.421 223.626,50.585 224.26,50.615C224.43,50.435 224.6,50.315 224.77,50.155C225.336,50.441 225.956,50.605 226.59,50.635C226.76,50.455 226.93,50.325 227.1,50.165C227.667,50.457 228.292,50.621 228.93,50.645C229.1,50.475 229.26,50.345 229.43,50.185C229.997,50.477 230.622,50.641 231.26,50.665C231.43,50.495 231.59,50.365 231.76,50.205C232.329,50.493 232.953,50.656 233.59,50.685C233.76,50.505 233.93,50.385 234.09,50.225C234.66,50.511 235.283,50.675 235.92,50.705C236.09,50.525 236.26,50.395 236.43,50.235C236.994,50.526 237.616,50.69 238.25,50.715C238.42,50.545 238.59,50.415 238.76,50.255C239.326,50.541 239.946,50.705 240.58,50.735C240.75,50.565 240.92,50.435 241.09,50.275C241.659,50.563 242.283,50.726 242.92,50.755C243.08,50.575 243.25,50.455 243.42,50.295C243.989,50.583 244.613,50.746 245.25,50.775C245.42,50.595 245.58,50.465 245.75,50.305C246.317,50.597 246.942,50.761 247.58,50.785C247.75,50.615 247.91,50.485 248.08,50.325C248.65,50.611 249.273,50.775 249.91,50.805C250.08,50.635 250.25,50.505 250.41,50.345C250.98,50.631 251.603,50.795 252.24,50.825C252.41,50.645 252.58,50.525 252.75,50.365C253.318,50.647 253.937,50.81 254.57,50.845C254.74,50.665 254.91,50.535 255.08,50.375C255.644,50.666 256.266,50.83 256.9,50.855C257.07,50.685 257.24,50.555 257.41,50.395C257.979,50.683 258.603,50.846 259.24,50.875C259.4,50.705 259.57,50.575 259.74,50.415C260.309,50.703 260.933,50.866 261.57,50.895C261.74,50.715 261.9,50.595 262.07,50.435C262.64,50.719 263.264,50.88 263.9,50.905C264.07,50.735 264.23,50.605 264.4,50.445C264.968,50.736 265.592,50.9 266.23,50.925C266.4,50.755 266.57,50.625 266.73,50.465C267.3,50.751 267.923,50.915 268.56,50.945C268.73,50.775 268.9,50.645 269.07,50.485C269.636,50.771 270.256,50.935 270.89,50.965C271.06,50.785 271.23,50.665 271.4,50.505C271.967,50.788 272.587,50.948 273.22,50.975C273.39,50.805 273.56,50.675 273.73,50.515C274.297,50.807 274.922,50.971 275.56,50.995C275.72,50.825 275.89,50.695 276.06,50.535C276.629,50.823 277.253,50.986 277.89,51.015C278.06,50.835 278.22,50.715 278.39,50.555C278.959,50.843 279.583,51.006 280.22,51.035C280.39,50.855 280.56,50.725 280.72,50.565C281.288,50.856 281.912,51.02 282.55,51.045C282.72,50.875 282.89,50.745 283.05,50.585C283.618,50.876 284.242,51.04 284.88,51.065C285.05,50.895 285.22,50.765 285.39,50.605C285.956,50.891 286.576,51.055 287.21,51.085C287.38,50.905 287.55,50.785 287.72,50.625C288.286,50.911 288.906,51.075 289.54,51.105C289.71,50.925 289.88,50.795 290.05,50.635C290.617,50.927 291.242,51.091 291.88,51.115C292.05,50.945 292.21,50.815 292.38,50.655C292.947,50.947 293.572,51.111 294.21,51.135C294.38,50.965 294.54,50.835 294.71,50.675C295.279,50.963 295.903,51.126 296.54,51.155C296.71,50.975 296.88,50.855 297.04,50.695C297.61,50.981 298.233,51.145 298.87,51.175C299.04,50.995 299.21,50.865 299.37,50.705C299.938,50.996 300.562,51.16 301.2,51.185C301.37,51.015 301.54,50.885 301.71,50.725C302.276,51.011 302.896,51.175 303.53,51.205C303.7,51.035 303.87,50.905 304.04,50.745C304.606,51.031 305.226,51.195 305.86,51.225C306.03,51.045 306.2,50.925 306.37,50.765C306.939,51.053 307.563,51.216 308.2,51.245C308.37,51.065 308.53,50.935 308.7,50.775C309.267,51.067 309.892,51.231 310.53,51.255C312.286,49.339 314.591,48.012 317.13,47.455C317.13,45.575 316.65,44.765 317.23,43.115C315.71,42.875 314.06,41.285 313.15,41.565C312.73,38.185 312.29,37.105 310.9,35.365C313.45,34.885 313.75,32.215 314.78,30.765C315.45,29.815 316,30.305 316.51,29.715C316.75,29.455 316.33,28.565 316.51,28.275C317.77,26.665 317.59,27.715 317.6,25.775C317.6,24.775 319.28,24.025 319.03,23.285C319.09,20.045 315.81,20.165 314.69,18.105C315.86,17.985 317.92,18.285 319.18,16.775C318.91,13.015 319.69,10.885 320.41,8.135C319.47,3.975 314,3.355 311.62,2.495C310.72,2.145 309.73,2.096 308.8,2.355C308.036,2.16 307.234,2.16 306.47,2.355C304.913,2.348 303.357,2.348 301.8,2.355C301.036,2.155 300.234,2.155 299.47,2.355C298.706,2.16 297.904,2.16 297.14,2.355C295.587,2.348 294.033,2.348 292.48,2.355C290.923,2.355 289.367,2.355 287.81,2.355C286.257,2.362 284.703,2.362 283.15,2.355C282.386,2.16 281.584,2.16 280.82,2.355C279.267,2.348 277.713,2.348 276.16,2.355C275.396,2.155 274.594,2.155 273.83,2.355C272.273,2.355 270.717,2.355 269.16,2.355C268.396,2.16 267.594,2.16 266.83,2.355C266.066,2.155 265.264,2.155 264.5,2.355C263.736,2.16 262.934,2.16 262.17,2.355C260.617,2.348 259.063,2.348 257.51,2.355C256.743,2.155 255.937,2.155 255.17,2.355C254.406,2.16 253.604,2.16 252.84,2.355C251.287,2.348 249.733,2.348 248.18,2.355C247.416,2.155 246.614,2.155 245.85,2.355C244.293,2.355 242.737,2.355 241.18,2.355C239.627,2.362 238.073,2.362 236.52,2.355C235.756,2.16 234.954,2.16 234.19,2.355C233.426,2.155 232.624,2.155 231.86,2.355C231.096,2.155 230.294,2.155 229.53,2.355C228.766,2.155 227.964,2.155 227.2,2.355C226.436,2.16 225.634,2.16 224.87,2.355C224.103,2.155 223.297,2.155 222.53,2.355C221.766,2.155 220.964,2.155 220.2,2.355C219.436,2.16 218.634,2.16 217.87,2.355C217.106,2.16 216.304,2.16 215.54,2.355C214.776,2.155 213.974,2.155 213.21,2.355C212.446,2.155 211.644,2.155 210.88,2.355C210.116,2.16 209.314,2.16 208.55,2.355C207.782,2.16 206.978,2.16 206.21,2.355C205.446,2.16 204.644,2.16 203.88,2.355C203.116,2.155 202.314,2.155 201.55,2.355C200.786,2.16 199.984,2.16 199.22,2.355C198.456,2.16 197.654,2.16 196.89,2.355C196.126,2.16 195.324,2.16 194.56,2.355C193.793,2.155 192.987,2.155 192.22,2.355C191.456,2.16 190.654,2.16 189.89,2.355C189.126,2.16 188.324,2.16 187.56,2.355C186.796,2.16 185.994,2.16 185.23,2.355C184.466,2.155 183.664,2.155 182.9,2.355C182.136,2.16 181.334,2.16 180.57,2.355C179.806,2.16 179.004,2.16 178.24,2.355C177.476,2.16 176.674,2.16 175.91,2.355C175.143,2.155 174.337,2.155 173.57,2.355C172.806,2.16 172.004,2.16 171.24,2.355C170.476,2.155 169.674,2.155 168.91,2.355C168.146,2.155 167.344,2.155 166.58,2.355C165.816,2.155 165.014,2.155 164.25,2.355C163.486,2.16 162.684,2.16 161.92,2.355C161.153,2.155 160.347,2.155 159.58,2.355C158.816,2.155 158.014,2.155 157.25,2.355C156.486,2.16 155.684,2.16 154.92,2.355C154.156,2.16 153.354,2.16 152.59,2.355C151.826,2.16 151.024,2.16 150.26,2.355C149.496,2.155 148.694,2.155 147.93,2.355C147.166,2.16 146.364,2.16 145.6,2.355C144.832,2.16 144.028,2.16 143.26,2.355C142.496,2.16 141.694,2.16 140.93,2.355C140.166,2.155 139.364,2.155 138.6,2.355C137.836,2.16 137.034,2.16 136.27,2.355C135.506,2.16 134.704,2.16 133.94,2.355C133.176,2.16 132.374,2.16 131.61,2.355C130.846,2.155 130.044,2.155 129.28,2.355C128.512,2.16 127.708,2.16 126.94,2.355C126.176,2.16 125.374,2.16 124.61,2.355C123.846,2.16 123.044,2.16 122.28,2.355C121.673,1.68 120.88,1.2 120,0.975C119.236,0.78 118.434,0.78 117.67,0.975C116.906,0.78 116.104,0.78 115.34,0.975C114.576,0.78 113.774,0.78 113.01,0.975C112.243,0.775 111.437,0.775 110.67,0.975C109.906,0.78 109.104,0.78 108.34,0.975C107.576,0.775 106.774,0.775 106.01,0.975C105.246,0.775 104.444,0.775 103.68,0.975C102.916,0.78 102.114,0.78 101.35,0.975C100.595,0.714 99.787,0.648 99,0.785C98.233,0.585 97.427,0.585 96.66,0.785C95.896,0.585 95.094,0.585 94.33,0.785C93.57,0.573 92.769,0.556 92,0.735C91.236,0.54 90.434,0.54 89.67,0.735C88.906,0.54 88.104,0.54 87.34,0.735C86.577,0.517 85.771,0.5 85,0.685C84.236,0.49 83.435,0.49 82.67,0.685C81.906,0.49 81.105,0.49 80.34,0.685C79.576,0.473 78.772,0.456 78,0.635C77.236,0.435 76.434,0.435 75.67,0.635C74.906,0.44 74.104,0.44 73.34,0.635C72.578,0.418 71.773,0.398 71,0.575C70.236,0.38 69.434,0.38 68.67,0.575C67.906,0.375 67.104,0.375 66.34,0.575C65.576,0.363 64.772,0.346 64,0.525C63.236,0.33 62.434,0.33 61.67,0.525C60.906,0.33 60.104,0.33 59.34,0.525C58.577,0.307 57.771,0.29 57,0.475C56.236,0.28 55.434,0.28 54.67,0.475C53.906,0.275 53.104,0.275 52.34,0.475C51.577,0.257 50.771,0.24 50,0.425C49.233,0.225 48.427,0.225 47.66,0.425C46.896,0.23 46.094,0.23 45.33,0.425C44.571,0.209 43.768,0.191 43,0.375C42.236,0.175 41.434,0.175 40.67,0.375C39.906,0.175 39.104,0.175 38.34,0.375C37.577,0.159 36.773,0.138 36,0.315C35.236,0.12 34.434,0.12 33.67,0.315C32.903,0.115 32.097,0.115 31.33,0.315C30.57,0.103 29.769,0.086 29,0.265C28.236,0.07 27.434,0.07 26.67,0.265C25.906,0.07 25.104,0.07 24.34,0.265C23.577,0.047 22.771,0.03 22,0.215C21.235,0.02 20.435,0.02 19.67,0.215C18.906,0.02 18.105,0.02 17.34,0.215C16.576,0.003 15.772,-0.014 15,0.165C14.236,-0.035 13.434,-0.035 12.67,0.165C11.906,-0.03 11.104,-0.03 10.34,0.165C7.35,-0.685 4,1.905 3.56,4.395C3,7.575 5.81,8.525 6.84,10.975C7.52,10.715 7.76,9.975 7.84,8.975C8.389,9.565 8.839,10.24 9.17,10.975C9.382,10.884 9.571,10.747 9.723,10.574C9.875,10.401 9.987,10.197 10.05,9.975C10.599,10.986 11.074,12.035 11.47,13.115L11.04,13.115C10.89,13.115 11.04,13.215 10.95,13.265C10.217,13.093 9.46,13.039 8.71,13.105C8.71,13.105 8.66,13.195 8.62,13.245C7.883,13.073 7.124,13.019 6.37,13.085L6.29,13.225C5.539,13.056 4.766,13.008 4,13.085C1.93,16.225 1.28,18.595 3.45,22.085C2.34,24.115 3.27,26.305 4,28.265ZM314,18.105C313.789,18.108 313.578,18.091 313.37,18.055L313.92,18.055C313.948,18.07 313.974,18.087 314,18.105Z" style="fill:white;"/>
</svg>
