<?xml version="1.0" encoding="utf-8"?>
<!-- Svg Vector Icons : http://www.onlinewebfonts.com/icon -->
<!DOCTYPE svg PUBLIC "-//W3C//DTD SVG 1.1//EN" "http://www.w3.org/Graphics/SVG/1.1/DTD/svg11.dtd">
<svg version="1.1" xmlns="http://www.w3.org/2000/svg" xmlns:xlink="http://www.w3.org/1999/xlink" x="0px" y="0px" viewBox="0 0 1000 1000" enable-background="new 0 0 1000 1000" xml:space="preserve">
<metadata> Svg Vector Icons : http://www.onlinewebfonts.com/icon </metadata>
<g><g transform="translate(0.000000,511.000000) scale(0.100000,-0.100000)"><path d="M634,3339.8c-143.6-38.3-250.7-132.1-319.6-279.5c-28.7-61.3-32.5-241.2-38.3-1927.5l-5.7-1862.4h-84.2H100v-966.6v-966.6h86.1h84.2l5.7-233.5l5.7-235.4l4712.4-5.7l4714.3-3.8v239.3v239.3h95.7h95.7v964.7v966.6l-90,5.8l-91.9,5.7l-9.6,1875.8l-9.6,1875.8l-51.7,90c-57.4,97.6-120.6,155-225.9,202.9c-61.3,30.6-407.7,32.5-4383.2,36.4C1663.8,3362.7,702.9,3358.9,634,3339.8z M8941.1,2687.1c30.6-15.3,59.3-42.1,67-57.4c5.7-17.2,11.5-926.4,11.5-2021.3v-1990.6l-47.9-45.9l-45.9-47.9h-591.4h-589.5l-57.4,178l-55.5,176.1H5000H2368.2l-57.4-176.1l-57.4-178h-589.5h-589.5l-45.9,47.9l-47.9,45.9V610.3c0,1374.3,5.7,2005.9,21.1,2030.8c11.5,21.1,38.3,45.9,61.2,55.5c23,9.6,1739.9,17.2,3933.4,17.2C8376.4,2715.8,8895.1,2711.9,8941.1,2687.1z M3277.3-1696.1c68.9-36.4,114.8-118.7,114.8-210.5c0-49.8-17.2-86.1-65.1-139.7c-59.3-65.1-74.6-70.8-164.6-70.8s-105.3,5.7-164.6,70.8C2819.9-1851.2,3040-1573.6,3277.3-1696.1z M6952.3-1696.1c126.3-65.1,149.3-252.7,44-357.9c-151.2-149.3-388.6-42.1-388.6,176.1c0,65.1,11.5,91.9,65.1,145.5c53.6,53.6,80.4,65.1,143.6,65.1C6860.5-1667.4,6921.7-1680.8,6952.3-1696.1z M2509.8-2404.3c160.8-137.8,88-379-124.4-403.9c-155-19.1-283.3,132.1-239.3,281.4C2194-2366.1,2385.4-2301,2509.8-2404.3z M7773.5-2406.3c105.3-88,114.8-231.6,21-331.1c-145.5-156.9-392.4-51.7-392.4,166.5c0,72.7,9.6,91.9,70.8,149.3C7566.7-2337.3,7683.5-2329.7,7773.5-2406.3z"/><path d="M2287.8,1741.5c-193.3-55.5-331.1-135.9-476.6-279.5C1240.8,901.2,1495.4-0.3,2291.6-245.3c109.1-32.5,245-34.4,2708.4-34.4c2461.5,0,2599.3,1.9,2706.5,34.4c199.1,61.3,338.8,145.5,482.3,289c139.7,137.8,197.2,229.7,256.5,405.8c187.6,541.7-166.5,1144.6-758,1299.6c-97.6,24.9-442.2,28.7-2696.9,26.8C2582.5,1776,2398.8,1772.1,2287.8,1741.5z M2879.2,1391.2c151.2-70.8,271.8-187.6,346.4-338.8c55.5-112.9,61.3-141.6,61.3-298.6c0-149.3-7.7-187.6-55.5-292.9C3097.4,170.1,2762.5-6,2462,55.2c-363.7,74.6-602.9,384.7-578,746.5c21,283.3,206.7,518.7,490,625.9C2492.6,1469.7,2749.1,1452.5,2879.2,1391.2z M7702.7,1391.2c151.2-70.8,271.8-187.6,346.4-338.8c55.5-112.9,61.3-141.6,61.3-298.6c0-157-5.7-185.7-63.2-300.5C7903.6,160.5,7584-6,7285.4,55.2c-201,42.1-348.4,137.8-457.5,296.7c-260.3,384.7-86.1,911.1,356,1070C7316,1469.7,7564.8,1456.3,7702.7,1391.2z M5784.8,744.3V150.9H5000h-784.8v593.4v593.4H5000h784.8V744.3z"/></g></g>
</svg>