<?xml version="1.0" encoding="UTF-8" standalone="no"?>
<!DOCTYPE svg PUBLIC "-//W3C//DTD SVG 1.1//EN" "http://www.w3.org/Graphics/SVG/1.1/DTD/svg11.dtd">
<svg width="100%" height="100%" viewBox="0 0 48 48" version="1.1" xmlns="http://www.w3.org/2000/svg" xmlns:xlink="http://www.w3.org/1999/xlink" xml:space="preserve" xmlns:serif="http://www.serif.com/" style="fill-rule:evenodd;clip-rule:evenodd;stroke-linejoin:round;stroke-miterlimit:2;">
    <path d="M24.55,33.65C27.25,33.65 29.542,32.708 31.425,30.825C33.308,28.942 34.25,26.667 34.25,24C34.25,21.333 33.308,19.067 31.425,17.2C29.542,15.333 27.25,14.4 24.55,14.4C24.117,14.4 23.733,14.425 23.4,14.475C23.067,14.525 22.75,14.583 22.45,14.65C22.283,14.717 22.142,14.817 22.025,14.95C21.908,15.083 21.85,15.233 21.85,15.4C21.85,15.467 22,15.733 22.3,16.2C23.567,17.067 24.542,18.192 25.225,19.575C25.908,20.958 26.25,22.433 26.25,24C26.25,25.633 25.9,27.142 25.2,28.525C24.5,29.908 23.517,31.017 22.25,31.85C22.15,31.917 22,32.167 21.8,32.6C21.8,32.767 21.867,32.925 22,33.075C22.133,33.225 22.283,33.333 22.45,33.4C22.883,33.5 23.267,33.567 23.6,33.6C23.933,33.633 24.25,33.65 24.55,33.65Z" style="fill:white;fill-rule:nonzero;"/>
</svg>
