<?xml version="1.0" encoding="UTF-8" standalone="no"?>
<!DOCTYPE svg PUBLIC "-//W3C//DTD SVG 1.1//EN" "http://www.w3.org/Graphics/SVG/1.1/DTD/svg11.dtd">
<svg width="100%" height="100%" viewBox="0 0 48 48" version="1.1" xmlns="http://www.w3.org/2000/svg" xmlns:xlink="http://www.w3.org/1999/xlink" xml:space="preserve" xmlns:serif="http://www.serif.com/" style="fill-rule:evenodd;clip-rule:evenodd;stroke-linejoin:round;stroke-miterlimit:2;">
    <path d="M17.3,40L11,40C10.167,40 9.458,39.708 8.875,39.125C8.292,38.542 8,37.833 8,37L8,30.7L3.4,26.1C2.833,25.533 2.55,24.833 2.55,24C2.55,23.167 2.833,22.467 3.4,21.9L8,17.3L8,11C8,10.167 8.292,9.458 8.875,8.875C9.458,8.292 10.167,8 11,8L17.3,8L21.9,3.4C22.467,2.8 23.167,2.517 24,2.55C24.833,2.583 25.55,2.883 26.15,3.45L30.7,8L37,8C37.833,8 38.542,8.292 39.125,8.875C39.708,9.458 40,10.167 40,11L40,17.3L44.6,21.9C45.167,22.467 45.45,23.167 45.45,24C45.45,24.833 45.167,25.533 44.6,26.1L40,30.7L40,37C40,37.833 39.708,38.542 39.125,39.125C38.542,39.708 37.833,40 37,40L30.7,40L26.2,44.45C25.6,45.017 24.883,45.3 24.05,45.3C23.217,45.3 22.5,45.017 21.9,44.45L17.3,40ZM24.05,42.35L29.45,37L37,37L37,29.45L42.45,24L37,18.55L37,11L29.45,11L24.05,5.55L18.55,11L11,11L11,18.55L5.55,24L11,29.45L11,37L18.5,37L24.05,42.35Z" style="fill-rule:nonzero;"/>
    <path d="M24.55,33.65C27.25,33.65 29.542,32.708 31.425,30.825C33.308,28.942 34.25,26.667 34.25,24C34.25,21.333 33.308,19.067 31.425,17.2C29.542,15.333 27.25,14.4 24.55,14.4C24.117,14.4 23.733,14.425 23.4,14.475C23.067,14.525 22.75,14.583 22.45,14.65C22.283,14.717 22.142,14.817 22.025,14.95C21.908,15.083 21.85,15.233 21.85,15.4C21.85,15.467 22,15.733 22.3,16.2C23.567,17.067 24.542,18.192 25.225,19.575C25.908,20.958 26.25,22.433 26.25,24C26.25,25.633 25.9,27.142 25.2,28.525C24.5,29.908 23.517,31.017 22.25,31.85C22.15,31.917 22,32.167 21.8,32.6C21.8,32.767 21.867,32.925 22,33.075C22.133,33.225 22.283,33.333 22.45,33.4C22.883,33.5 23.267,33.567 23.6,33.6C23.933,33.633 24.25,33.65 24.55,33.65Z" style="fill-rule:nonzero;"/>
</svg>
